<svg xmlns="http://www.w3.org/2000/svg" viewBox="0 0 64 64">
  <!-- Aggy the Aggregator: a flat little alligator on a transparent background -->
  <!-- tail -->
  <path d="M10 40 C4 40 4 32 10 34 L16 36 L16 44 Z" fill="#3E9E55"/>
  <!-- head / body (side profile, facing right) -->
  <rect x="8" y="28" width="49" height="19" rx="9" fill="#57B368"/>
  <!-- back ridges -->
  <path d="M18 28 l4 -5 l4 5 Z" fill="#3E9E55"/>
  <path d="M27 28 l4 -5 l4 5 Z" fill="#3E9E55"/>
  <!-- lower jaw -->
  <path d="M20 40 H55 a4 4 0 0 1 -4 6 H26 a6 6 0 0 1 -6 -6 Z" fill="#3E9E55"/>
  <!-- teeth -->
  <path d="M26 40 l3 4 l3 -4 Z" fill="#FFFFFF"/>
  <path d="M34 40 l3 4 l3 -4 Z" fill="#FFFFFF"/>
  <path d="M42 40 l3 4 l3 -4 Z" fill="#FFFFFF"/>
  <!-- eye bump -->
  <circle cx="20" cy="27" r="8" fill="#57B368"/>
  <circle cx="21" cy="25" r="4.5" fill="#FFFFFF"/>
  <circle cx="22.5" cy="25" r="2" fill="#1F2937"/>
  <!-- nostril -->
  <circle cx="52" cy="33" r="1.8" fill="#2E7D44"/>
</svg>
