<?xml version="1.0" standalone="no"?>
<!DOCTYPE svg PUBLIC "-//W3C//DTD SVG 20010904//EN"
 "http://www.w3.org/TR/2001/REC-SVG-20010904/DTD/svg10.dtd">
<svg version="1.0" xmlns="http://www.w3.org/2000/svg" viewBox="0 0 474.000000 478.000000"
 preserveAspectRatio="xMidYMid meet">
<g transform="translate(0.000000,478.000000) scale(0.100000,-0.100000)"
fill="#000000" stroke="none">
<path d="M1125 4763 c-44 -9 -82 -19 -83 -24 -2 -5 -7 -7 -12 -4 -17 11 -270
-80 -270 -97 0 -5 -4 -6 -10 -3 -5 3 -10 2 -10 -3 0 -5 -7 -9 -15 -9 -26 0
-176 -97 -270 -175 -213 -176 -348 -389 -423 -670 l-27 -103 -2 -1272 c-2
-899 1 -1273 9 -1273 6 0 8 -13 6 -30 -3 -17 0 -30 5 -30 5 0 7 -11 5 -25 -3
-14 -2 -25 2 -25 5 0 19 -51 46 -162 1 -5 3 -10 4 -13 1 -3 3 -8 4 -12 8 -35
29 -83 37 -83 6 0 7 -4 4 -10 -3 -5 -1 -10 5 -10 6 0 8 -5 5 -10 -3 -5 -2 -10
4 -10 8 0 27 -40 22 -47 0 -2 8 -12 19 -23 12 -12 18 -25 15 -29 -2 -5 2 -12
11 -15 8 -3 13 -10 10 -15 -3 -5 1 -12 10 -15 8 -3 12 -10 9 -16 -3 -5 -2 -10
3 -10 5 0 27 -26 49 -57 36 -51 203 -222 203 -208 0 4 9 -2 62 -47 66 -56 356
-178 422 -178 31 0 66 24 66 46 0 13 122 417 206 683 35 113 67 216 70 230 7
33 6 31 39 136 15 49 49 173 75 275 46 178 48 184 60 152 29 -79 91 -192 133
-243 l45 -56 1 -87 c1 -48 -2 -85 -7 -82 -4 2 -14 1 -22 -5 -12 -7 -11 -9 5
-10 11 0 14 -3 8 -6 -7 -2 -13 -12 -13 -20 0 -9 -6 -13 -14 -10 -7 3 -19 0
-25 -6 -9 -9 -11 -8 -5 6 3 10 13 16 20 13 15 -6 19 6 7 18 -4 3 -8 15 -10 26
-2 15 2 18 25 14 19 -3 23 -2 12 5 -8 5 -18 7 -22 5 -4 -3 -8 0 -8 5 0 14 -44
-30 -46 -46 -1 -7 3 -13 9 -13 8 0 8 -3 -1 -8 -18 -12 -9 -210 17 -357 33
-185 96 -413 158 -571 l56 -144 546 0 c300 0 551 4 556 8 16 10 58 110 105
247 77 225 131 489 146 725 4 71 3 89 -10 99 -13 11 -19 11 -31 1 -9 -7 -18
-10 -22 -6 -4 3 2 12 12 20 17 12 17 13 -5 12 -13 -1 -25 5 -28 13 -3 9 2 11
19 7 13 -3 18 -3 11 0 -6 3 -9 10 -6 16 4 6 -1 6 -14 -1 -11 -6 -22 -16 -24
-23 -2 -6 -4 27 -3 75 1 82 2 88 32 119 55 59 90 115 123 202 19 47 35 84 37
82 2 -2 21 -71 42 -152 66 -255 380 -1300 414 -1376 l12 -26 115 33 c215 63
347 143 521 315 112 111 192 217 233 308 10 23 23 42 28 42 5 0 6 4 3 10 -3 5
-2 10 4 10 6 0 8 7 5 15 -4 8 -1 15 6 15 6 0 9 4 6 8 -3 5 8 50 24 100 17 51
30 99 30 107 0 8 4 15 9 15 5 0 7 9 4 20 -3 11 0 20 6 20 6 0 8 11 5 30 -4 18
-2 30 4 30 7 0 11 381 12 1243 0 1093 -1 1252 -15 1325 -22 113 -64 255 -78
264 -7 4 -9 8 -4 8 9 0 -52 124 -64 128 -5 2 -7 8 -3 13 3 5 0 9 -6 9 -6 0 -9
4 -6 8 3 5 -3 18 -14 29 -10 12 -16 23 -13 27 3 3 -2 8 -11 12 -9 3 -16 13
-16 20 0 8 -7 17 -15 20 -8 4 -15 11 -15 18 0 6 -9 17 -20 24 -11 7 -20 18
-20 25 0 8 -33 44 -72 81 -40 37 -84 78 -98 91 -14 14 -29 25 -32 25 -4 0 -19
11 -34 25 -15 14 -33 25 -40 25 -8 0 -14 5 -14 11 0 5 -4 8 -9 5 -5 -3 -12 1
-15 10 -3 8 -10 12 -16 9 -5 -3 -10 -1 -10 5 0 6 -5 8 -10 5 -5 -3 -10 -1 -10
4 0 6 -3 10 -7 9 -5 -1 -39 13 -78 31 -88 42 -245 94 -372 123 -98 22 -100 22
-1258 24 -1011 2 -1170 0 -1240 -13z m644 -422 c129 -190 241 -474 241 -612 0
-21 2 -39 5 -39 3 0 27 11 53 24 71 36 172 64 255 72 93 8 212 -14 319 -61
l77 -33 5 31 c27 188 55 278 136 442 60 120 119 209 153 229 16 9 24 5 52 -29
49 -57 139 -236 166 -330 20 -67 24 -102 24 -215 -1 -159 -19 -232 -92 -371
l-45 -86 61 -190 c65 -206 105 -353 98 -360 -3 -2 -29 8 -59 23 -247 125 -630
188 -997 164 -282 -19 -470 -63 -684 -162 -37 -17 -70 -29 -73 -26 -8 9 52
241 104 402 l48 150 -53 105 c-62 124 -82 193 -90 316 -10 159 37 329 138 496
59 98 86 130 106 122 7 -3 31 -31 52 -62z m926 -2161 c171 -29 306 -67 415
-114 l95 -41 3 -55 c7 -129 -51 -363 -119 -476 -37 -62 -106 -144 -120 -144
-4 0 -10 57 -11 128 l-3 127 -30 0 -30 0 -3 -217 -2 -218 29 -58 c55 -109 74
-191 69 -305 -3 -91 -7 -108 -32 -152 -16 -28 -48 -68 -72 -91 -25 -24 -60
-75 -85 -123 -76 -150 -116 -164 -461 -159 -230 3 -234 3 -283 30 -65 34 -87
59 -123 138 -19 42 -48 82 -82 115 -73 70 -101 130 -107 230 -6 104 16 207 63
299 l37 71 5 208 c4 221 1 241 -42 235 -20 -3 -21 -10 -24 -130 -1 -71 -7
-128 -11 -128 -23 0 -118 122 -153 196 -53 114 -105 352 -96 444 3 34 5 35
103 73 185 71 374 116 595 141 87 10 361 -4 475 -24z m392 -1102 c-1 -10 -4
-18 -8 -18 -4 0 -9 8 -11 18 -3 11 0 19 8 19 7 0 12 -9 11 -19z m52 -29 c-9
-5 -15 -4 -18 2 -2 6 3 15 10 20 9 5 15 4 18 -2 2 -6 -3 -15 -10 -20z m-1469
6 c0 -8 -2 -15 -4 -15 -2 0 -6 7 -10 15 -3 8 -1 15 4 15 6 0 10 -7 10 -15z
m1427 -20 c-19 -19 -24 -19 -24 0 0 8 4 12 8 9 4 -2 11 1 14 7 4 5 9 8 12 5 3
-3 -2 -12 -10 -21z m63 -5 c0 -5 -4 -10 -10 -10 -5 0 -10 5 -10 10 0 6 5 10
10 10 6 0 10 -4 10 -10z m-1519 -27 c13 -16 12 -17 -3 -4 -17 13 -22 21 -14
21 2 0 10 -8 17 -17z m1475 -8 c-3 -8 0 -15 6 -15 6 0 9 -2 6 -5 -3 -3 -12 -3
-21 1 -13 5 -14 9 -4 20 16 18 20 17 13 -1z"/>
<path d="M1670 4118 c-75 -124 -96 -352 -44 -501 27 -80 109 -267 117 -267 14
0 76 143 97 224 35 137 21 262 -45 413 -32 71 -86 163 -97 163 -5 0 -17 -15
-28 -32z"/>
<path d="M2993 4098 c-43 -72 -79 -154 -98 -226 -19 -76 -19 -221 0 -296 16
-62 83 -223 95 -231 8 -5 94 191 122 280 28 86 34 223 14 313 -17 82 -73 212
-90 212 -7 0 -26 -24 -43 -52z"/>
<path d="M1928 1023 c-35 -38 -48 -84 -48 -167 0 -82 18 -120 96 -211 61 -70
95 -74 144 -18 32 36 33 37 27 117 -7 104 -48 225 -92 271 -42 45 -89 48 -127
8z"/>
<path d="M2687 1020 c-62 -54 -117 -231 -102 -327 8 -52 58 -113 93 -113 24 0
135 117 163 172 36 71 20 214 -31 268 -37 40 -78 40 -123 0z"/>
<path d="M1585 1185 c-18 -15 -18 -16 -2 -33 17 -16 18 -16 11 1 -3 9 -1 24 6
32 16 19 11 19 -15 0z"/>
<path d="M1635 1150 c3 -5 10 -10 16 -10 5 0 9 5 9 10 0 6 -7 10 -16 10 -8 0
-12 -4 -9 -10z"/>
<path d="M3148 1143 c7 -3 16 -2 19 1 4 3 -2 6 -13 5 -11 0 -14 -3 -6 -6z"/>
</g>
</svg>
